<?xml version="1.0" encoding="utf-8"?>
<!-- Generator: Adobe Illustrator 26.1.0, SVG Export Plug-In . SVG Version: 6.00 Build 0)  -->
<svg version="1.1" id="Capa_1" xmlns="http://www.w3.org/2000/svg" xmlns:xlink="http://www.w3.org/1999/xlink" x="0px" y="0px"
	 viewBox="0 0 132 133" style="enable-background:new 0 0 132 133;" xml:space="preserve">
<style type="text/css">
	.st0{fill:#B9C4E1;}
	.st1{fill:#FFFFFF;}
</style>
<g>
	<ellipse transform="matrix(0.7071 -0.7071 0.7071 0.7071 -27.5475 66.0967)" class="st0" cx="66" cy="66.3" rx="64.8" ry="64.8"/>
	<ellipse class="st1" cx="66" cy="55.7" rx="25.2" ry="32.6"/>
	<path class="st1" d="M66,90.7c-21.1,0-39.6,6.4-50.5,16.2c11.9,14.7,30.1,24.2,50.5,24.2c20.4,0,38.6-9.4,50.5-24.2
		C105.6,97.1,87.1,90.7,66,90.7z"/>
	<path class="st1" d="M68.8,107.4h-5.6c-5.3,0-9.6-4.3-9.6-9.6V75.9c0-5.3,4.3-9.6,9.6-9.6h5.6c5.3,0,9.6,4.3,9.6,9.6v21.9
		C78.4,103.1,74.1,107.4,68.8,107.4z"/>
	<path class="st1" d="M44.3,57.2c1.5,4.2,0.9,8.3-1.3,9c-2.2,0.8-5.1-2.1-6.6-6.3c-1.5-4.2-0.9-8.3,1.3-9
		C39.9,50.2,42.8,53,44.3,57.2z"/>
	<path class="st1" d="M87.7,57.2c-1.5,4.2-0.9,8.3,1.3,9s5.1-2.1,6.6-6.3c1.5-4.2,0.9-8.3-1.3-9C92.2,50.2,89.2,53,87.7,57.2z"/>
	<path class="st1" d="M44,57.1c-3.3-6-6.6-12.3-6.5-19.1c0.2-6.8,5.3-14,12.1-13.7c1.2,0,2.4,0.3,3.5,0.1c2.3-0.3,4.1-2.3,6-3.7
		c4.3-3.2,10.3-3.9,15.2-1.9c3.1,1.2,5.7,3.4,8.6,4.8c5.6,2.6,12.4,2.4,17.8-0.7c-1.1,2.1-3,3.8-5.2,4.6c2,0.6,4.3,0.6,6.3-0.2
		c-1.2,2.2-3.2,3.9-5.5,4.8c1.7,0.1,3.4,0.2,5.2,0.4c-1.5,2.1-3.6,3.7-6,4.6c1.4,0,2.7,0.1,4.1,0.1c-1,3-3.6,5.4-6.7,6.1
		c0.9,0,1.7,0,2.6,0c-2.9,4.1-5.7,8.2-8.6,12.4c-0.8,1.2-1.7,2.4-2.9,3.2c-1,0.6-2.2,0.9-3.3,1.2c-8.5,1.9-17.2,2.5-25.8,1.7
		c-3-0.3-6-0.8-8.4-2.6c-2.3-1.8-3.6-5.4-2-7.8"/>
	<path class="st1" d="M49.8,96.8C50,93.4,50.4,90,51,86.7c1.7,1.9,4.6,2.2,7.1,2.3c3.9,0.2,7.8,0.3,11.6,0.5
		c0.5,2.6,0.8,5.8-1.1,7.6c-0.9,0.9-2.1,1.3-3.3,1.6c-2.6,0.7-5.3,1.1-8,1.1c-3.2,0-7.1-0.9-8.1-4c0.3-0.3,0.7-0.6,1-0.9"/>
	<path class="st1" d="M82.3,96.8c-0.2-3.4-0.6-6.8-1.3-10.2c-1.7,1.9-4.6,2.2-7.1,2.3c-3.9,0.2-7.8,0.3-11.6,0.5
		c-0.5,2.6-0.8,5.8,1.1,7.6c0.9,0.9,2.1,1.3,3.3,1.6c2.6,0.7,5.3,1.1,8,1.1c3.2,0,7.1-0.9,8.1-4c-0.3-0.3-0.7-0.6-1-0.9"/>
</g>
</svg>
